# xmcd
#
# Track frame offsets:
#	182
#	26732
#	50932
#	70970
#	102695
#	122507
#	137982
#	163732
#	186095
#	219745
#	239882
#	259182
#
# Disc length: 3717 seconds
#
# Revision: 3
# Processed by: cddbd v1.5.2PL0 Copyright (c) Steve Scherf et al.
# Submitted via: audiograbber 1.83.01
#
DISCID=c70e830c
DTITLE=Kinsey, Big Daddy - Ramblin' man
DYEAR=1994
DGENRE=Blues
TTITLE0=Tippin' on in
TTITLE1=Little rain falling
TTITLE2=These kinda of blues
TTITLE3=It's over
TTITLE4=Ramblin' man
TTITLE5=Nothing's too good for my baby
TTITLE6=Treat your woman right
TTITLE7=For the love of a woman
TTITLE8=Bloody tears
TTITLE9=Stayed away too long
TTITLE10=Worst feeling
TTITLE11=Dancing shoes
EXTD=
EXTT0=
EXTT1=
EXTT2=
EXTT3=
EXTT4=
EXTT5=
EXTT6=
EXTT7=
EXTT8=
EXTT9=
EXTT10=
EXTT11=
PLAYORDER=
